<svg height="511pt" viewBox="1 -30 511.999 511" width="511pt" xmlns="http://www.w3.org/2000/svg"><path d="m256 10.5c119.207031 0 215.847656 96.636719 215.847656 215.84375 0 9.417969-.609375 18.691406-1.777344 27.789062 19.679688 18.925782 31.929688 45.523438 31.929688 74.984376 0 57.453124-46.574219 104.027343-104.027344 104.027343-17.601562 0-34.179687-4.375-48.710937-12.089843-28.230469 13.546874-59.859375 21.136718-93.261719 21.136718-119.210938 0-215.847656-96.636718-215.847656-215.847656 0-9.414062.605468-18.6875 1.777344-27.785156-19.679688-18.929688-31.929688-45.523438-31.929688-74.984375 0-57.453125 46.574219-104.03125 104.027344-104.03125 17.601562 0 34.175781 4.378906 48.707031 12.09375 28.230469-13.546875 59.863281-21.136719 93.265625-21.136719zm0 0" fill="#2daae1" fill-rule="evenodd"/><path d="m372.664062 123.410156c10.914063 14.890625 7.691407 35.808594-7.195312 46.722656-14.890625 10.914063-35.808594 7.691407-46.722656-7.199218-9.898438-13.503906-29.488282-23.351563-50.34375-27.414063-14.410156-2.808593-36.171875-3.566406-48.636719 5.566407-13.488281 9.886718-8.4375 24.921874 4.402344 32.101562 29.402343 16.4375 67.152343 13.738281 101.859375 34.78125 16.054687 9.730469 29.179687 23.550781 37.257812 39.066406 19.578125 37.59375 7.667969 81.640625-26.195312 106.460938-30.085938 22.046875-70.957032 24.523437-106.40625 16.855468-35.25-7.628906-69.351563-26.515624-88.859375-53.136718-10.914063-14.886719-7.691407-35.808594 7.199219-46.71875 14.890624-10.914063 35.808593-7.691406 46.722656 7.195312 9.550781 13.035156 28.503906 22.773438 49.074218 27.222656 15.335938 3.316407 39.398438 4.441407 52.746094-5.339843 15.011719-11 6.863282-26.691407-6.089844-34.546875-11.117187-6.742188-26.554687-10.28125-41.992187-13.820313-19.175781-4.398437-38.355469-8.796875-57.773437-19.652343-31.445313-17.578126-52.742188-53.441407-45.644532-89.878907 8.34375-42.808593 41.84375-67.769531 83.507813-73.589843 50.1875-7.011719 112.832031 14.03125 143.089843 55.324218zm0 0" fill="#fff" fill-rule="evenodd"/><path d="m480.566406 250.5c.847656-8.003906 1.28125-16.109375 1.28125-24.152344 0-60.328125-23.492187-117.042968-66.148437-159.699218-42.660157-42.65625-99.375-66.148438-159.699219-66.148438-5.777344 0-11.625.222656-17.378906.660156-5.507813.417969-9.632813 5.222656-9.210938 10.730469.417969 5.507813 5.226563 9.628906 10.726563 9.210937 5.253906-.398437 10.589843-.601562 15.863281-.601562 113.503906 0 205.847656 92.339844 205.847656 205.847656 0 8.84375-.570312 17.761719-1.695312 26.511719-.402344 3.140625.703125 6.285156 2.988281 8.480469 18.609375 17.898437 28.859375 41.972656 28.859375 67.777344 0 51.847656-42.183594 94.027343-94.027344 94.027343-15.269531 0-29.839844-3.546875-43.300781-10.542969-4.898437-2.550781-10.9375-.640624-13.484375 4.257813-2.546875 4.902344-.640625 10.9375 4.261719 13.484375 16.109375 8.375 34.269531 12.800781 52.523437 12.800781 62.875 0 114.027344-51.152343 114.027344-114.027343 0-29.609376-11.125-57.332032-31.433594-78.617188zm0 0"/><path d="m271.863281 431.589844c-5.253906.398437-10.589843.601562-15.863281.601562-113.503906 0-205.847656-92.339844-205.847656-205.84375 0-8.847656.570312-17.765625 1.695312-26.515625.402344-3.140625-.707031-6.285156-2.988281-8.480469-18.609375-17.898437-28.859375-41.972656-28.859375-67.777343 0-51.847657 42.179688-94.03125 94.027344-94.03125 15.269531 0 29.835937 3.550781 43.300781 10.546875 4.894531 2.546875 10.933594.644531 13.484375-4.257813 2.546875-4.902343.640625-10.941406-4.261719-13.488281-16.109375-8.375-34.273437-12.800781-52.523437-12.800781-62.875 0-114.027344 51.15625-114.027344 114.03125 0 29.609375 11.125 57.332031 31.433594 78.617187-.847656 8.003906-1.28125 16.109375-1.28125 24.15625 0 60.324219 23.492187 117.039063 66.148437 159.695313 42.660157 42.65625 99.375 66.148437 159.699219 66.148437 5.777344 0 11.625-.222656 17.378906-.660156 5.507813-.417969 9.632813-5.222656 9.210938-10.730469-.417969-5.507812-5.230469-9.628906-10.726563-9.210937zm0 0"/><path d="m225.679688 149.152344c8.765624-6.421875 26.8125-6.546875 40.808593-3.816406 19.402344 3.777343 36.335938 12.785156 44.191407 23.511718 6.859374 9.351563 16.949218 15.476563 28.414062 17.246094 11.464844 1.765625 22.929688-1.039062 32.285156-7.898438 9.355469-6.855468 15.480469-16.945312 17.246094-28.410156 1.769531-11.464844-1.035156-22.929687-7.894531-32.285156-15.417969-21.042969-39.804688-38.53125-68.65625-49.242188-27.511719-10.214843-57.300781-13.789062-83.882813-10.078124-48.949218 6.839843-83.316406 37.335937-91.9375 81.582031-3.832031 19.660156-.597656 39.933593 9.351563 58.625 9.214843 17.308593 23.855469 32.1875 41.226562 41.894531 20.667969 11.554688 40.875 16.1875 60.417969 20.671875 14.40625 3.300781 29.300781 6.71875 39.039062 12.625 5.347657 3.242187 9.199219 8.097656 9.359376 11.804687.03125.765626.136718 3.097657-3.996094 6.125-9.628906 7.054688-29.929688 6.828126-44.71875 3.628907-19.0625-4.125-35.585938-13.074219-43.125-23.359375-6.855469-9.355469-16.945313-15.480469-28.414063-17.246094-11.460937-1.765625-22.929687 1.039062-32.285156 7.894531-9.351563 6.859375-15.476563 16.949219-17.246094 28.414063-1.765625 11.464844 1.039063 22.929687 7.898438 32.285156 19.894531 27.152344 55.339843 48.460938 94.808593 57 12.949219 2.800781 25.71875 4.175781 38.035157 4.175781 29.269531 0 55.980469-7.78125 76.394531-22.742187 18.398438-13.480469 31.511719-32.675782 36.921875-54.050782 5.515625-21.773437 2.757813-44.890624-7.765625-65.09375-8.921875-17.128906-23.464844-32.398437-40.945312-43-20.03125-12.144531-41.144532-16.957031-59.777344-21.207031-15.445313-3.519531-30.039063-6.847656-42.386719-13.75-4.214844-2.355469-7.058594-5.914062-7.253906-9.066406-.132813-2.152344 1.175781-4.25 3.886719-6.238281zm-23.847657 7.464844c.617188 10.074218 7.144531 19.535156 17.457031 25.296874 14.855469 8.308594 31.554688 12.113282 47.699219 15.792969 17.988281 4.101563 36.589844 8.34375 53.855469 18.8125 14.394531 8.726563 26.320312 21.203125 33.574219 35.136719 17.03125 32.703125 7.476562 71.261719-23.238281 93.773438-24.394532 17.875-60.25 23.394531-98.378907 15.144531-34.824219-7.53125-65.820312-25.953125-82.910156-49.269531-3.699219-5.046876-5.210937-11.234376-4.257813-17.417969.953126-6.1875 4.257813-11.628907 9.304688-15.328125 4.0625-2.976563 8.859375-4.539063 13.800781-4.539063 1.199219 0 2.40625.09375 3.613281.28125 6.1875.953125 11.628907 4.253907 15.328126 9.300781 10.617187 14.488282 30.671874 25.816407 55.027343 31.085938 6.59375 1.425781 40.519531 7.789062 60.769531-7.046875 8.226563-6.027344 12.542969-14.242187 12.152344-23.128906-.457031-10.476563-7.726562-21.21875-18.96875-28.035157-12.496094-7.578124-28.988281-11.359374-44.941406-15.019531-19.007812-4.355469-36.957031-8.472656-55.128906-18.628906-29.808594-16.664063-46.546875-49.25-40.703125-79.238281 7.011719-36.003906 34.375-59.917969 75.070312-65.601563 49.652344-6.9375 107.113281 15.128907 133.644531 51.332031 3.699219 5.046876 5.210938 11.234376 4.257813 17.417969-.953125 6.183594-4.257813 11.628907-9.304687 15.328125-5.046876 3.699219-11.230469 5.210938-17.417969 4.257813-6.183594-.953125-11.625-4.253907-15.324219-9.300781-10.871094-14.835938-31.992188-26.542969-56.496094-31.320313-8.613281-1.675781-38.136718-6.109375-56.460937 7.320313-8.3125 6.089843-12.585938 14.472656-12.023438 23.59375zm0 0"/><path d="m199.785156 27.949219c.800782 0 1.617188-.097657 2.433594-.300781 5.355469-1.339844 8.613281-6.769532 7.273438-12.125-1.335938-5.359376-6.769532-8.617188-12.125-7.277344h-.007813c-5.359375 1.339844-8.613281 6.769531-7.273437 12.125 1.136718 4.542968 5.21875 7.578125 9.699218 7.578125zm0 0"/><path d="m309.460938 425.128906c-5.308594 1.515625-8.386719 7.050782-6.867188 12.363282 1.253906 4.390624 5.257812 7.253906 9.609375 7.253906.910156 0 1.835937-.125 2.753906-.386719l.003907-.003906c5.3125-1.515625 8.382812-7.050781 6.867187-12.359375s-7.058594-8.382813-12.367187-6.867188zm0 0"/></svg>